<svg width="20" height="20" viewBox="0 0 20 20" fill="none" xmlns="http://www.w3.org/2000/svg">
<path d="M17.2584 12.625L10.5384 19.6458C10.4584 19.7292 10.3718 19.7881 10.2784 19.8225C10.1851 19.8575 10.0851 19.875 9.97844 19.875C9.87177 19.875 9.77177 19.8575 9.67844 19.8225C9.5851 19.7881 9.49844 19.7292 9.41844 19.6458L2.67844 12.625C2.49177 12.4306 2.39844 12.1875 2.39844 11.8958C2.39844 11.6042 2.49844 11.3542 2.69844 11.1458C2.89844 10.9375 3.13177 10.8333 3.39844 10.8333C3.6651 10.8333 3.89844 10.9375 4.09844 11.1458L9.97844 17.2708L15.8584 11.1458C16.0451 10.9514 16.275 10.8542 16.548 10.8542C16.8216 10.8542 17.0584 10.9583 17.2584 11.1667C17.4584 11.375 17.5584 11.6181 17.5584 11.8958C17.5584 12.1736 17.4584 12.4167 17.2584 12.625Z" fill="#1B1B1C"/>
</svg>
