<svg width="20" height="20" viewBox="0 0 20 20" fill="none" xmlns="http://www.w3.org/2000/svg">
<g clip-path="url(#clip0_437_9875)">
<path d="M9.99935 1.66699C5.39935 1.66699 1.66602 5.40033 1.66602 10.0003C1.66602 14.6003 5.39935 18.3337 9.99935 18.3337C14.5993 18.3337 18.3327 14.6003 18.3327 10.0003C18.3327 5.40033 14.5993 1.66699 9.99935 1.66699ZM9.99935 14.167C9.54102 14.167 9.16602 13.792 9.16602 13.3337V10.0003C9.16602 9.54199 9.54102 9.16699 9.99935 9.16699C10.4577 9.16699 10.8327 9.54199 10.8327 10.0003V13.3337C10.8327 13.792 10.4577 14.167 9.99935 14.167ZM10.8327 7.50033H9.16602V5.83366H10.8327V7.50033Z" fill="#2888F6"/>
</g>
<defs>
<clipPath id="clip0_437_9875">
<rect width="20" height="20" fill="white"/>
</clipPath>
</defs>
</svg>
