<svg width="20" height="20" viewBox="0 0 20 20" fill="none" xmlns="http://www.w3.org/2000/svg">
<g clip-path="url(#clip0_481_8319)">
<path d="M2.27518 17.5001H17.7168C18.3585 17.5001 18.7585 16.8085 18.4418 16.2501L10.7168 2.9168C10.3918 2.35846 9.59185 2.35846 9.27518 2.9168L1.55018 16.2501C1.23351 16.8085 1.63351 17.5001 2.27518 17.5001ZM10.8335 15.0001H9.16685V13.3335H10.8335V15.0001ZM10.0002 11.6668C9.54185 11.6668 9.16685 11.2918 9.16685 10.8335V9.1668C9.16685 8.70846 9.54185 8.33346 10.0002 8.33346C10.4585 8.33346 10.8335 8.70846 10.8335 9.1668V10.8335C10.8335 11.2918 10.4585 11.6668 10.0002 11.6668Z" fill="#FF5449"/>
</g>
<defs>
<clipPath id="clip0_481_8319">
<rect width="20" height="20" fill="white"/>
</clipPath>
</defs>
</svg>
