<svg width="24" height="24" viewBox="0 0 24 24" fill="none" xmlns="http://www.w3.org/2000/svg">
<g clip-path="url(#clip0_867_28446)">
<g clip-path="url(#clip1_867_28446)">
<path d="M10.67 13.02C10.45 13.01 10.23 13 10 13C7.58 13 5.32 13.67 3.39 14.82C2.51 15.34 2 16.32 2 17.35V19C2 19.55 2.45 20 3 20H11.26C10.47 18.87 10 17.49 10 16C10 14.93 10.25 13.93 10.67 13.02Z" fill="#2888F6"/>
<path d="M10 12C12.2091 12 14 10.2091 14 8C14 5.79086 12.2091 4 10 4C7.79086 4 6 5.79086 6 8C6 10.2091 7.79086 12 10 12Z" fill="#2888F6"/>
<path d="M20.7489 15.9998C20.7489 15.7798 20.7189 15.5798 20.6889 15.3698L21.5289 14.6398C21.7089 14.4798 21.7489 14.2198 21.6289 14.0098L21.0389 12.9898C20.9189 12.7798 20.6689 12.6898 20.4489 12.7698L19.3889 13.1298C19.0689 12.8598 18.7089 12.6498 18.3089 12.4998L18.0889 11.4098C18.0389 11.1798 17.8389 11.0098 17.5989 11.0098H16.4189C16.1789 11.0098 15.9789 11.1798 15.9289 11.4098L15.7089 12.4998C15.3089 12.6498 14.9489 12.8598 14.6289 13.1298L13.5689 12.7698C13.3389 12.6898 13.0989 12.7898 12.9789 12.9898L12.3889 14.0098C12.2689 14.2198 12.3089 14.4798 12.4889 14.6398L13.3289 15.3698C13.2989 15.5798 13.2689 15.7798 13.2689 15.9998C13.2689 16.2198 13.2989 16.4198 13.3289 16.6298L12.4889 17.3598C12.3089 17.5198 12.2689 17.7798 12.3889 17.9898L12.9789 19.0098C13.0989 19.2198 13.3489 19.3098 13.5689 19.2298L14.6289 18.8698C14.9489 19.1398 15.3089 19.3498 15.7089 19.4998L15.9289 20.5898C15.9789 20.8198 16.1789 20.9898 16.4189 20.9898H17.5989C17.8389 20.9898 18.0389 20.8198 18.0889 20.5898L18.3089 19.4998C18.7089 19.3498 19.0689 19.1398 19.3889 18.8698L20.4489 19.2298C20.6789 19.3098 20.9189 19.2098 21.0389 19.0098L21.6289 17.9898C21.7489 17.7798 21.7089 17.5198 21.5289 17.3598L20.6889 16.6298C20.7189 16.4198 20.7489 16.2198 20.7489 15.9998ZM16.9989 17.9998C15.8989 17.9998 14.9989 17.0998 14.9989 15.9998C14.9989 14.8998 15.8989 13.9998 16.9989 13.9998C18.0989 13.9998 18.9989 14.8998 18.9989 15.9998C18.9989 17.0998 18.0989 17.9998 16.9989 17.9998Z" fill="#2888F6"/>
</g>
</g>
<defs>
<clipPath id="clip0_867_28446">
<rect width="24" height="24" fill="white"/>
</clipPath>
<clipPath id="clip1_867_28446">
<rect width="24" height="24" fill="white"/>
</clipPath>
</defs>
</svg>
