<svg width="24" height="24" viewBox="0 0 24 24" fill="none" xmlns="http://www.w3.org/2000/svg">
<path d="M9.12578 21.1004L0.700781 12.7004C0.600781 12.6004 0.530115 12.4921 0.488781 12.3754C0.446781 12.2587 0.425781 12.1337 0.425781 12.0004C0.425781 11.8671 0.446781 11.7421 0.488781 11.6254C0.530115 11.5087 0.600781 11.4004 0.700781 11.3004L9.12578 2.87539C9.35911 2.64206 9.65078 2.52539 10.0008 2.52539C10.3508 2.52539 10.6508 2.65039 10.9008 2.90039C11.1508 3.15039 11.2758 3.44206 11.2758 3.77539C11.2758 4.10872 11.1508 4.40039 10.9008 4.65039L3.55078 12.0004L10.9008 19.3504C11.1341 19.5837 11.2508 19.8711 11.2508 20.2124C11.2508 20.5544 11.1258 20.8504 10.8758 21.1004C10.6258 21.3504 10.3341 21.4754 10.0008 21.4754C9.66745 21.4754 9.37578 21.3504 9.12578 21.1004Z" fill="#1B1B1C"/>
</svg>
