<svg width="24" height="24" viewBox="0 0 24 24" fill="none" xmlns="http://www.w3.org/2000/svg">
<path d="M20.7109 8.85039L12.6469 0.425391C12.5509 0.325391 12.4469 0.254724 12.3349 0.213391C12.2229 0.171391 12.1029 0.150391 11.9749 0.150391C11.8469 0.150391 11.7269 0.171391 11.6149 0.213391C11.5029 0.254724 11.3989 0.325391 11.3029 0.425391L3.21491 8.85039C2.99091 9.08372 2.87891 9.37539 2.87891 9.72539C2.87891 10.0754 2.99891 10.3754 3.23891 10.6254C3.47891 10.8754 3.75891 11.0004 4.07891 11.0004C4.39891 11.0004 4.67891 10.8754 4.91891 10.6254L11.9749 3.27539L19.0309 10.6254C19.2549 10.8587 19.5307 10.9754 19.8584 10.9754C20.1867 10.9754 20.4709 10.8504 20.7109 10.6004C20.9509 10.3504 21.0709 10.0587 21.0709 9.72539C21.0709 9.39206 20.9509 9.10039 20.7109 8.85039Z" fill="#1B1B1C"/>
</svg>
