<svg width="24" height="24" viewBox="0 0 24 24" fill="none" xmlns="http://www.w3.org/2000/svg">
<path d="M20.7109 15.1496L12.6469 23.5746C12.5509 23.6746 12.4469 23.7453 12.3349 23.7866C12.2229 23.8286 12.1029 23.8496 11.9749 23.8496C11.8469 23.8496 11.7269 23.8286 11.6149 23.7866C11.5029 23.7453 11.3989 23.6746 11.3029 23.5746L3.21491 15.1496C2.99091 14.9163 2.87891 14.6246 2.87891 14.2746C2.87891 13.9246 2.99891 13.6246 3.23891 13.3746C3.47891 13.1246 3.75891 12.9996 4.07891 12.9996C4.39891 12.9996 4.67891 13.1246 4.91891 13.3746L11.9749 20.7246L19.0309 13.3746C19.2549 13.1413 19.5307 13.0246 19.8584 13.0246C20.1867 13.0246 20.4709 13.1496 20.7109 13.3996C20.9509 13.6496 21.0709 13.9413 21.0709 14.2746C21.0709 14.6079 20.9509 14.8996 20.7109 15.1496Z" fill="#1B1B1C"/>
</svg>
