<svg width="24" height="24" viewBox="0 0 24 24" fill="none" xmlns="http://www.w3.org/2000/svg">
<path d="M11.9927 19.4933C16.2642 19.4933 19.7899 15.9676 19.7899 11.7037C19.7899 7.43973 16.2567 3.91406 11.9852 3.91406C7.72126 3.91406 4.20312 7.43973 4.20312 11.7037C4.20312 15.9676 7.72879 19.4933 11.9927 19.4933ZM11.9927 17.9414C8.53488 17.9414 5.77009 15.1616 5.77009 11.7037C5.77009 8.24581 8.53488 5.47349 11.9852 5.47349C15.4431 5.47349 18.2229 8.24581 18.2305 11.7037C18.238 15.1616 15.4506 17.9414 11.9927 17.9414ZM8.19587 12.6529H11.9852C12.3318 12.6529 12.5954 12.3892 12.5954 12.0502V7.12333C12.5954 6.78432 12.3318 6.52065 11.9852 6.52065C11.6537 6.52065 11.3901 6.78432 11.3901 7.12333V11.4475H8.19587C7.85686 11.4475 7.59319 11.7112 7.59319 12.0502C7.59319 12.3892 7.85686 12.6529 8.19587 12.6529Z" fill="#1B1B1C"/>
</svg>
