<svg width="24" height="24" viewBox="0 0 24 24" fill="none" xmlns="http://www.w3.org/2000/svg">
<path d="M3.5 18L6.65 14.85L6.6 14.8C6.2 14.4 6 13.9333 6 13.4C6 12.8667 6.2 12.4 6.6 12L16 2.6C16.4 2.2 16.8667 2 17.4 2C17.9333 2 18.4 2.2 18.8 2.6L21.4 5.2C21.8 5.6 22 6.06667 22 6.6C22 7.13333 21.8 7.6 21.4 8L12 17.4C11.6 17.8 11.1333 18 10.6 18C10.0667 18 9.6 17.8 9.2 17.4L9.15 17.35L8.5 18H3.5ZM15.575 11.025L12.975 8.425L8.025 13.375L10.625 15.975L15.575 11.025ZM2 24V20H22V24H2Z" fill="#1B1B1C"/>
</svg>
