<svg width="24" height="24" viewBox="0 0 24 24" fill="none" xmlns="http://www.w3.org/2000/svg">
<path d="M11.999 15C13.659 15 14.999 13.66 14.999 12V6C14.999 4.34 13.659 3 11.999 3C10.339 3 8.99901 4.34 8.99901 6V12C8.99901 13.66 10.339 15 11.999 15ZM10.999 6C10.999 5.45 11.449 5 11.999 5C12.549 5 12.999 5.45 12.999 6V12C12.999 12.55 12.549 13 11.999 13C11.449 13 10.999 12.55 10.999 12V6ZM17.909 12C17.419 12 17.009 12.36 16.929 12.85C16.519 15.2 14.469 17 11.999 17C9.52901 17 7.47901 15.2 7.06901 12.85C6.98901 12.36 6.57901 12 6.08901 12C5.47901 12 4.99901 12.54 5.08901 13.14C5.57901 16.14 7.97901 18.49 10.999 18.92V21C10.999 21.55 11.449 22 11.999 22C12.549 22 12.999 21.55 12.999 21V18.92C16.019 18.49 18.419 16.14 18.909 13.14C19.009 12.54 18.519 12 17.909 12Z" fill="#1B1B1C"/>
</svg>
