<svg width="24" height="24" viewBox="0 0 24 24" fill="none" xmlns="http://www.w3.org/2000/svg">
<path d="M11.9209 15C13.5809 15 14.9209 13.66 14.9209 12V6C14.9209 4.34 13.5809 3 11.9209 3C10.2609 3 8.92088 4.34 8.92088 6V12C8.92088 13.66 10.2609 15 11.9209 15ZM17.8309 12C17.3409 12 16.9309 12.36 16.8509 12.85C16.4409 15.2 14.3909 17 11.9209 17C9.45088 17 7.40089 15.2 6.99089 12.85C6.91088 12.36 6.50089 12 6.01089 12C5.40088 12 4.92088 12.54 5.01088 13.14C5.50088 16.14 7.90088 18.49 10.9209 18.92V21C10.9209 21.55 11.3709 22 11.9209 22C12.4709 22 12.9209 21.55 12.9209 21V18.92C15.9409 18.49 18.3409 16.14 18.8309 13.14C18.9309 12.54 18.4409 12 17.8309 12Z" fill="#1B1B1C"/>
</svg>
