<svg width="24" height="24" viewBox="0 0 24 24" fill="none" xmlns="http://www.w3.org/2000/svg">
<path d="M5 21C4.45 21 3.979 20.8043 3.587 20.413C3.19567 20.021 3 19.55 3 19V5C3 4.45 3.19567 3.979 3.587 3.587C3.979 3.19567 4.45 3 5 3H19C19.55 3 20.021 3.19567 20.413 3.587C20.8043 3.979 21 4.45 21 5V15L15 21H5ZM11 14C11.2833 14 11.521 13.904 11.713 13.712C11.9043 13.5207 12 13.2833 12 13C12 12.7167 11.9043 12.479 11.713 12.287C11.521 12.0957 11.2833 12 11 12H8C7.71667 12 7.479 12.0957 7.287 12.287C7.09567 12.479 7 12.7167 7 13C7 13.2833 7.09567 13.5207 7.287 13.712C7.479 13.904 7.71667 14 8 14H11ZM16 10C16.2833 10 16.5207 9.904 16.712 9.712C16.904 9.52067 17 9.28333 17 9C17 8.71667 16.904 8.479 16.712 8.287C16.5207 8.09567 16.2833 8 16 8H8C7.71667 8 7.479 8.09567 7.287 8.287C7.09567 8.479 7 8.71667 7 9C7 9.28333 7.09567 9.52067 7.287 9.712C7.479 9.904 7.71667 10 8 10H16ZM14 19L19 14H15C14.7167 14 14.4793 14.0957 14.288 14.287C14.096 14.479 14 14.7167 14 15V19Z" fill="#1B1B1C"/>
</svg>
